<?xml version="1.0" encoding="UTF-8"?>
<svg width="300px" height="142px" viewBox="0 0 300 142" version="1.1" xmlns="http://www.w3.org/2000/svg" xmlns:xlink="http://www.w3.org/1999/xlink">
    <title>编组 12</title>
    <defs>
        <radialGradient cx="48.4518769%" cy="50%" fx="48.4518769%" fy="50%" r="111.723096%" gradientTransform="translate(0.484519,0.500000),scale(0.433678,1.000000),rotate(180.000000),scale(1.000000,0.425296),translate(-0.484519,-0.500000)" id="radialGradient-1">
            <stop stop-color="#0058FF" offset="0%"></stop>
            <stop stop-color="#2200D3" stop-opacity="0" offset="100%"></stop>
        </radialGradient>
        <radialGradient cx="48.4518769%" cy="50%" fx="48.4518769%" fy="50%" r="111.313258%" gradientTransform="translate(0.484519,0.500000),scale(0.435275,1.000000),rotate(-180.000000),scale(1.000000,0.425296),translate(-0.484519,-0.500000)" id="radialGradient-2">
            <stop stop-color="#0058FF" offset="0%"></stop>
            <stop stop-color="#2200D3" stop-opacity="0" offset="100%"></stop>
        </radialGradient>
        <radialGradient cx="48.4518769%" cy="50%" fx="48.4518769%" fy="50%" r="82.6277669%" gradientTransform="translate(0.484519,0.500000),scale(0.586387,1.000000),rotate(-180.000000),scale(1.000000,0.605360),translate(-0.484519,-0.500000)" id="radialGradient-3">
            <stop stop-color="#CA00D3" offset="0%"></stop>
            <stop stop-color="#2200D3" stop-opacity="0" offset="100%"></stop>
        </radialGradient>
        <linearGradient x1="53.645727%" y1="0%" x2="53.645727%" y2="100%" id="linearGradient-4">
            <stop stop-color="#3C00FF" stop-opacity="0" offset="0%"></stop>
            <stop stop-color="#EC6EFF" offset="100%"></stop>
        </linearGradient>
        <linearGradient x1="50%" y1="0%" x2="50%" y2="100%" id="linearGradient-5">
            <stop stop-color="#FFFFFF" offset="28.3407998%"></stop>
            <stop stop-color="#FFFFFF" stop-opacity="0" offset="99.1176792%"></stop>
        </linearGradient>
        <linearGradient x1="4.04221976%" y1="50%" x2="100%" y2="50%" id="linearGradient-6">
            <stop stop-color="#3C00FF" offset="0%"></stop>
            <stop stop-color="#EC6EFF" offset="100%"></stop>
        </linearGradient>
        <linearGradient x1="4.04221976%" y1="50%" x2="100%" y2="50%" id="linearGradient-7">
            <stop stop-color="#3C00FF" offset="0%"></stop>
            <stop stop-color="#EC6EFF" offset="100%"></stop>
        </linearGradient>
        <linearGradient x1="4.0675094%" y1="85.8582388%" x2="100%" y2="85.8582388%" id="linearGradient-8">
            <stop stop-color="#3B27E7" offset="0%"></stop>
            <stop stop-color="#1C6CFF" offset="48.2987679%"></stop>
            <stop stop-color="#00D0FF" offset="100%"></stop>
        </linearGradient>
        <linearGradient x1="5.61362417%" y1="85.8582388%" x2="100%" y2="85.8582388%" id="linearGradient-9">
            <stop stop-color="#00A1FF" offset="0%"></stop>
            <stop stop-color="#26E6C5" offset="100%"></stop>
        </linearGradient>
        <text id="text-10" font-family="HelveticaNeue-BoldItalic, Helvetica Neue" font-size="16" font-style="italic" font-weight="bold" fill="#FFFFFF">
            <tspan x="0" y="16">Synthetic</tspan>
        </text>
        <filter x="-24.6%" y="-94.7%" width="149.3%" height="289.5%" filterUnits="objectBoundingBox" id="filter-11">
            <feOffset dx="0" dy="0" in="SourceAlpha" result="shadowOffsetOuter1"></feOffset>
            <feGaussianBlur stdDeviation="6" in="shadowOffsetOuter1" result="shadowBlurOuter1"></feGaussianBlur>
            <feColorMatrix values="0 0 0 0 1   0 0 0 0 1   0 0 0 0 1  0 0 0 1 0" type="matrix" in="shadowBlurOuter1"></feColorMatrix>
        </filter>
        <path d="M86.2944421,8.79289322 C86.6553643,8.43240926 87.2232849,8.40467972 87.616053,8.70970461 L87.7103749,8.79289322 L92.1083686,13.1855469 L79.8540483,13.1855469 C79.3010921,13.1855469 78.8528326,12.7378316 78.8528326,12.1855469 C78.8528326,11.672711 79.2393421,11.2500397 79.7372854,11.1922746 L79.8540483,11.1855469 L87.2729674,11.185 L86.2944421,10.2071068 C85.9335199,9.84662282 85.9057566,9.27939176 86.2111523,8.88710056 L86.2944421,8.79289322 Z" id="path-12"></path>
        <filter x="-135.8%" y="-384.2%" width="371.6%" height="868.3%" filterUnits="objectBoundingBox" id="filter-13">
            <feOffset dx="0" dy="0" in="SourceAlpha" result="shadowOffsetOuter1"></feOffset>
            <feGaussianBlur stdDeviation="6" in="shadowOffsetOuter1" result="shadowBlurOuter1"></feGaussianBlur>
            <feColorMatrix values="0 0 0 0 1   0 0 0 0 1   0 0 0 0 1  0 0 0 1 0" type="matrix" in="shadowBlurOuter1"></feColorMatrix>
        </filter>
    </defs>
    <g id="NFT" stroke="none" stroke-width="1" fill="none" fill-rule="evenodd">
        <g id="w-NFT2" transform="translate(-442.000000, -594.000000)">
            <g id="编组-12" transform="translate(444.037065, 594.339602)">
                <g id="编组-9" opacity="0.621343568" transform="translate(160.176075, 70.406956) rotate(-7.000000) translate(-160.176075, -70.406956) translate(31.442664, 15.277731)" fill-rule="nonzero">
                    <ellipse id="椭圆形" fill="url(#radialGradient-1)" cx="85.7070665" cy="55.0383779" rx="83.6015095" ry="36.2561564"></ellipse>
                    <ellipse id="椭圆形" fill="url(#radialGradient-2)" cx="126.653784" cy="55.1292242" rx="126.653784" ry="55.1292242"></ellipse>
                    <ellipse id="椭圆形" fill="url(#radialGradient-3)" transform="translate(198.349460, 65.999865) rotate(-7.000000) translate(-198.349460, -65.999865) " cx="198.34946" cy="65.9998648" rx="55.5609705" ry="32.58025"></ellipse>
                </g>
                <ellipse id="椭圆形" stroke="url(#linearGradient-4)" stroke-width="2" transform="translate(147.963213, 67.773452) rotate(-6.000000) translate(-147.963213, -67.773452) " cx="147.963213" cy="67.7734522" rx="146.665458" ry="20.1017383"></ellipse>
                <path d="M272.810367,54.923095 C275.29423,57.2638067 277.782746,58.4292273 280.275914,58.4193569 C282.769083,58.4094865 285.266905,57.224325 287.76938,54.8638725 C285.408927,57.3663473 284.223766,59.864169 284.213895,62.3573378 C284.204025,64.8505066 285.369446,67.3390224 287.710157,69.8228853 C285.226294,67.4821736 282.737779,66.316753 280.24461,66.3266234 C277.751441,66.3364938 275.253619,67.5216553 272.751144,69.8821078 C275.111597,67.3796331 276.296758,64.8818113 276.306629,62.3886425 C276.316499,59.8954737 275.151079,57.4069579 272.810367,54.923095 Z" id="矩形" fill="url(#linearGradient-5)" transform="translate(280.260262, 62.372990) rotate(-315.000000) translate(-280.260262, -62.372990) "></path>
                <path d="M25.4864044,61.6353108 C26.9767221,63.0397378 28.4698316,63.7389902 29.9657329,63.7330679 C31.4616342,63.7271457 32.9603272,63.0160488 34.4618121,61.5997773 C33.0455406,63.1012621 32.3344437,64.5999552 32.3285215,66.0958565 C32.3225992,67.5917577 33.0218516,69.0848673 34.4262786,70.575185 C32.9359609,69.170758 31.4428514,68.4715056 29.9469501,68.4774278 C28.4510488,68.4833501 26.9523557,69.194447 25.4508709,70.6107185 C26.8671424,69.1092336 27.5782393,67.6105406 27.5841615,66.1146393 C27.5900838,64.618738 26.8908314,63.1256285 25.4864044,61.6353108 Z" id="矩形" fill="url(#linearGradient-6)" opacity="0.50931141" transform="translate(29.956341, 66.105248) rotate(-315.000000) translate(-29.956341, -66.105248) "></path>
                <g id="编组-7" transform="translate(64.498283, 45.330755)">
                    <ellipse id="椭圆形" fill="url(#linearGradient-7)" cx="34.541941" cy="17.3830887" rx="17.5212744" ry="17.3830887"></ellipse>
                    <ellipse id="椭圆形" fill="url(#linearGradient-8)" cx="17.5212744" cy="17.3830887" rx="17.5212744" ry="17.3830887"></ellipse>
                    <path d="M26.5327514,1.98683469 C31.6199448,4.96106466 35.0425489,10.5198135 35.0425489,16.886429 C35.0425489,23.2530446 31.6199448,28.8117934 26.5327514,31.7860234 C21.4444864,28.8117934 18.0218823,23.2530446 18.0218823,16.886429 C18.0218823,10.5531553 21.4087321,5.01930885 26.4518925,2.03377497 Z" id="形状结合" fill="url(#linearGradient-9)"></path>
                </g>
                <g id="编组-7" transform="translate(134.583380, 53.277310)" fill-rule="nonzero">
                    <g id="Synthetic" fill="#FFFFFF" fill-opacity="1">
                        <use filter="url(#filter-11)" xlink:href="#text-10"></use>
                        <use xlink:href="#text-10"></use>
                    </g>
                    <g id="路径-8">
                        <use fill="black" fill-opacity="1" filter="url(#filter-13)" xlink:href="#path-12"></use>
                        <use fill="#FFFFFF" xlink:href="#path-12"></use>
                    </g>
                </g>
            </g>
        </g>
    </g>
</svg>